<svg width="40" height="40" viewBox="0 0 40 40" fill="none" xmlns="http://www.w3.org/2000/svg">
<circle cx="20" cy="20" r="19.4545" stroke="#2723E1" stroke-width="1.09091"/>
<path d="M14.6123 14.1611H29.7815L25.9892 22.4086H16.1292L14.6123 14.1611Z" stroke="#2723E1" stroke-width="1.09091" stroke-linecap="round" stroke-linejoin="round"/>
<path d="M16.1302 22.4092H14.8408C14.234 22.4092 13.7031 22.934 13.7031 23.5338C13.7031 24.1337 14.234 24.6585 14.8408 24.6585H29.024" stroke="#2723E1" stroke-width="1.09091" stroke-linecap="round" stroke-linejoin="round"/>
<path d="M10.8187 14.1612C11.6564 14.1612 12.3356 13.4898 12.3356 12.6617C12.3356 11.8335 11.6564 11.1621 10.8187 11.1621C9.9809 11.1621 9.30176 11.8335 9.30176 12.6617C9.30176 13.4898 9.9809 14.1612 10.8187 14.1612Z" stroke="#2723E1" stroke-width="1.09091" stroke-linecap="round" stroke-linejoin="round"/>
<path d="M13.8548 28.4073C14.6926 28.4073 15.3717 27.7359 15.3717 26.9077C15.3717 26.0796 14.6926 25.4082 13.8548 25.4082C13.017 25.4082 12.3379 26.0796 12.3379 26.9077C12.3379 27.7359 13.017 28.4073 13.8548 28.4073Z" stroke="#2723E1" stroke-width="1.09091" stroke-linecap="round" stroke-linejoin="round"/>
<path d="M27.5072 28.4073C28.3449 28.4073 29.0241 27.7359 29.0241 26.9077C29.0241 26.0796 28.3449 25.4082 27.5072 25.4082C26.6694 25.4082 25.9902 26.0796 25.9902 26.9077C25.9902 27.7359 26.6694 28.4073 27.5072 28.4073Z" stroke="#2723E1" stroke-width="1.09091" stroke-linecap="round" stroke-linejoin="round"/>
<path d="M12.3379 12.6631C13.8548 12.6631 14.6133 13.1879 14.6133 14.1626" stroke="#2723E1" stroke-width="1.09091" stroke-linecap="round" stroke-linejoin="round"/>
<path d="M15.3682 17.1602H28.262" stroke="#2723E1" stroke-width="1.09091" stroke-linecap="round" stroke-linejoin="round"/>
</svg>
