<svg width="34" height="33" viewBox="0 0 34 33" fill="none" xmlns="http://www.w3.org/2000/svg">
<path d="M29.1818 11.5682L32 6.63636L20.0227 1L16.5 5.93182L13.6818 1L1 6.63636L3.81818 11.5682L1 16.5L3.81818 17.7527V26.3636L16.5 32L29.1818 26.3636V17.5568L32.7045 15.7955L29.1818 11.5682Z" fill="white"/>
<path d="M20.0227 22.1359L16.5 17.2041V31.9996L29.1818 26.3632V17.5564L20.0227 22.1359Z" fill="#BBD8FF"/>
<path d="M3.81836 11.568L16.5002 5.93164L29.182 11.568L16.5002 17.2044L3.81836 11.568Z" fill="#BBD8FF"/>
<path d="M29.182 17.5566V26.3635L16.5002 31.9998L3.81836 26.3635V17.7525" stroke="#2723E1" stroke-linecap="round" stroke-linejoin="round"/>
<path d="M16.5 17.2041V31.9996" stroke="#2723E1" stroke-linecap="round" stroke-linejoin="round"/>
<path d="M3.81818 11.5682L1 6.63636L13.6818 1L16.5 5.93182" stroke="#2723E1" stroke-linecap="round" stroke-linejoin="round"/>
<path d="M29.1818 11.5682L32 6.63636L20.0227 1L16.5 5.93182" stroke="#2723E1" stroke-linecap="round" stroke-linejoin="round"/>
<path d="M16.5 17.2047L13.6818 22.1365L1 16.5002L3.81818 11.5684" stroke="#2723E1" stroke-linecap="round" stroke-linejoin="round"/>
<path d="M16.5 17.2047L20.0227 22.1365L32.7045 15.7956L29.1818 11.5684" stroke="#2723E1" stroke-linecap="round" stroke-linejoin="round"/>
<path d="M29.182 11.5684L16.5002 17.2047L3.81836 11.5684" stroke="#2723E1" stroke-linecap="round" stroke-linejoin="round"/>
<path d="M29.182 11.568L16.5002 5.93164L3.81836 11.568" stroke="#2723E1" stroke-linecap="round" stroke-linejoin="round"/>
</svg>
