<svg width="17" height="19" viewBox="0 0 17 19" fill="none" xmlns="http://www.w3.org/2000/svg">
<path d="M14.5144 13.6615L14.2355 13.183C14.2122 13.1434 14.1899 13.1033 14.1677 13.0642L14.1181 12.974L14.1558 12.9482C14.6481 12.6159 14.7863 12.3538 14.772 11.7832C14.7701 11.5445 14.7482 11.3064 14.7066 11.0714C14.5828 10.4418 14.7368 9.94844 15.1767 9.56406C15.338 9.41421 15.4861 9.2508 15.6195 9.07565C16.1253 8.44607 16.1267 7.93636 15.6245 7.30975C15.4551 7.09873 15.2668 6.89564 15.085 6.69948L14.9721 6.57763C14.858 6.45784 14.7724 6.31386 14.7216 6.1564C14.6708 5.99895 14.6562 5.83206 14.6789 5.66818C14.6853 5.60478 14.6922 5.54137 14.6992 5.47747C14.7324 5.17184 14.767 4.85532 14.773 4.54474C14.7854 3.89138 14.5253 3.53176 13.8987 3.34155C13.6015 3.25239 13.2939 3.18849 12.9947 3.12707L12.8015 3.08744C12.6384 3.05839 12.484 2.99281 12.3498 2.89562C12.2157 2.79843 12.1052 2.67214 12.0268 2.52621L11.9277 2.35037C11.8093 2.13737 11.687 1.91694 11.5547 1.7089C11.0995 0.991145 10.6136 0.838084 9.82746 1.16402C9.75662 1.19325 9.68579 1.22643 9.61694 1.25814L9.49062 1.3156L9.37125 1.36761C9.238 1.42705 9.10029 1.48847 8.96358 1.54643C8.81838 1.61121 8.66116 1.6447 8.50217 1.6447C8.34317 1.6447 8.18595 1.61121 8.04075 1.54643C7.9189 1.49392 7.79804 1.43943 7.67717 1.38445C7.55631 1.32946 7.44535 1.27993 7.33043 1.22941C7.21551 1.17888 7.08276 1.12439 6.95496 1.0808C6.36055 0.892076 5.92366 1.03127 5.57791 1.52661C5.39859 1.78171 5.24157 2.06109 5.0895 2.33105C5.05631 2.39049 5.02263 2.44944 4.99043 2.50838C4.90967 2.66007 4.79553 2.79145 4.65661 2.89262C4.51769 2.99378 4.35762 3.06209 4.18847 3.09239L4.03986 3.12162C3.71341 3.18153 3.3902 3.25791 3.07147 3.35047C2.49291 3.52929 2.21749 3.91318 2.22938 4.52394C2.24239 4.8729 2.27364 5.22094 2.323 5.56663V5.57159C2.37551 5.99114 2.27 6.33392 1.99954 6.61924C1.74597 6.87854 1.50795 7.15261 1.28674 7.44002C0.903349 7.95468 0.904339 8.41535 1.29021 8.93398C1.50355 9.21237 1.73418 9.47707 1.98072 9.72653C2.26852 10.0237 2.38096 10.3839 2.3235 10.8222C2.27268 11.1818 2.24242 11.544 2.23285 11.907C2.22641 12.3528 2.41216 12.6837 2.78417 12.8943C2.80247 12.9049 2.81915 12.918 2.8337 12.9334C2.83915 12.9388 2.8451 12.9453 2.85203 12.9512L2.88126 12.9775L2.82776 13.0736C2.80448 13.1152 2.78268 13.1553 2.7594 13.1949L2.44833 13.7309C2.07533 14.3748 1.69045 15.045 1.30903 15.7009C1.22681 15.842 1.17628 15.9515 1.26842 16.0758C1.36055 16.2002 1.48984 16.1848 1.65429 16.1388C2.05056 16.0293 2.43842 15.9243 2.83618 15.8183C3.08385 15.7519 3.33152 15.687 3.57919 15.6201L3.96061 15.5211L3.97497 15.5661L3.99875 15.6419C4.0146 15.6915 4.02798 15.7331 4.03986 15.7772L4.15726 16.2121C4.30289 16.7505 4.45447 17.3068 4.59663 17.8556C4.63873 18.0171 4.6957 18.1206 4.8443 18.138C4.97656 18.1533 5.04591 18.0775 5.13457 17.9225C5.26666 17.6913 5.40024 17.4602 5.53531 17.229C5.80329 16.7668 6.08018 16.2878 6.34371 15.8138C6.49726 15.5374 6.66964 15.3363 7.01341 15.2536C7.26108 15.1931 7.5043 15.0777 7.73859 14.9658C7.83419 14.9202 7.93277 14.8731 8.03085 14.8305C8.18078 14.7627 8.34329 14.7271 8.50786 14.726C8.67365 14.7271 8.8373 14.7636 8.98785 14.833L9.10772 14.8875C9.23404 14.945 9.36431 15.0044 9.49508 15.0559L9.52034 15.0663C9.75365 15.1585 9.99538 15.2546 10.2376 15.3289C10.2931 15.3416 10.3454 15.3659 10.391 15.4C10.4366 15.4341 10.4746 15.4774 10.5026 15.527C10.7934 16.0367 11.0911 16.5538 11.3794 17.0536C11.5498 17.3489 11.72 17.6444 11.8901 17.9403C11.9664 18.0726 12.0387 18.1518 12.1734 18.1385C12.2982 18.1241 12.3676 18.0468 12.4122 17.8715C12.4617 17.6664 12.5206 17.4583 12.5746 17.2577L12.6123 17.118C12.7113 16.7505 12.8104 16.383 12.9095 16.0114L13.0408 15.5235L13.0878 15.5344L13.1517 15.5493C13.1918 15.5582 13.2275 15.5666 13.2632 15.576L13.7055 15.6939C14.2712 15.845 14.8562 16.001 15.4313 16.1571C15.5739 16.1962 15.6705 16.1705 15.7443 16.0734C15.8271 15.9639 15.7968 15.8614 15.7211 15.7321C15.3185 15.0426 14.9163 14.3524 14.5144 13.6615ZM4.93792 17.2553L4.80022 16.7436C4.68827 16.326 4.58127 15.9287 4.47428 15.5315C4.46239 15.4864 4.451 15.4413 4.43911 15.3962C4.42475 15.3398 4.41038 15.2833 4.39503 15.2273C4.33063 14.9945 4.23156 14.9366 4.00172 14.9975C3.63847 15.0932 3.27637 15.1895 2.91543 15.2863L2.26505 15.4596C2.23434 15.4676 2.20313 15.474 2.16598 15.4824L2.09911 15.4968L1.99509 15.5201L2.04462 15.426L2.07781 15.3606C2.09713 15.3219 2.11347 15.2902 2.13131 15.2615C2.23797 15.0762 2.34463 14.8913 2.4513 14.7067C2.72027 14.2416 2.99618 13.7606 3.26713 13.2846C3.34242 13.1518 3.42762 13.1147 3.57226 13.1523C3.7169 13.19 3.85758 13.2167 3.99776 13.244L4.20432 13.2856C4.36362 13.3145 4.51443 13.3787 4.64566 13.4735C4.7769 13.5683 4.88522 13.6913 4.96269 13.8334C5.00727 13.9137 5.05284 13.9934 5.09841 14.0732C5.1534 14.1688 5.21036 14.2678 5.26386 14.3664C5.44515 14.6973 5.6527 15.0396 6.0252 15.263L6.06681 15.2878L4.93792 17.2553ZM10.4991 14.8776C10.384 14.8738 10.2703 14.85 10.1633 14.8073C9.89507 14.7067 9.63277 14.5909 9.37769 14.4605C8.78327 14.1633 8.20372 14.1633 7.60535 14.4655C7.32539 14.6015 7.03852 14.7229 6.74593 14.8291C6.44872 14.941 6.18619 14.8578 6.00291 14.5953L5.98211 14.5655C5.83549 14.3699 5.70778 14.1607 5.60069 13.9409C5.27277 13.2103 4.70907 12.8066 3.8769 12.7065C3.64234 12.671 3.41142 12.6147 3.18688 12.5381L3.14973 12.5272C2.85599 12.4366 2.70392 12.2211 2.7173 11.9194C2.73562 11.5588 2.76683 11.1764 2.80794 10.7524C2.85748 10.2506 2.71432 9.82312 2.36808 9.44567L2.22938 9.29707C2.05948 9.11329 1.88264 8.92308 1.72314 8.72494C1.40464 8.33214 1.40414 8.06515 1.71967 7.6664C1.87701 7.46305 2.04903 7.2715 2.23434 7.09328C2.72324 6.63014 2.90305 6.05306 2.78367 5.32441C2.74206 5.06553 2.71938 4.80395 2.71581 4.54177C2.70838 4.12122 2.84807 3.93299 3.2493 3.81658C3.53662 3.7348 3.82878 3.6711 4.12407 3.62588C4.75861 3.52681 5.20838 3.1979 5.49816 2.62677C5.62695 2.37027 5.7717 2.12212 5.93158 1.88375C6.19114 1.49986 6.42692 1.42507 6.86382 1.58655C7.10347 1.67554 7.33738 1.77927 7.56423 1.89713C8.18738 2.22207 8.79467 2.22356 9.42029 1.90208C9.67535 1.77134 9.93917 1.65846 10.2099 1.56426C10.5744 1.43646 10.7835 1.50234 11.0084 1.8154C11.1722 2.03668 11.315 2.27284 11.4348 2.52077C11.7469 3.18651 12.266 3.55702 13.0199 3.65461C13.2305 3.68467 13.4387 3.72936 13.6431 3.78835C14.1696 3.93497 14.2935 4.12122 14.2751 4.72802V4.73148L14.1835 5.64936C14.1559 5.87066 14.1768 6.09532 14.2446 6.30777C14.3124 6.52023 14.4256 6.7154 14.5763 6.87979C14.6516 6.964 14.7279 7.04771 14.8042 7.13142C14.8948 7.23049 14.9855 7.32956 15.0751 7.42863C15.1554 7.51829 15.2331 7.60695 15.3035 7.70305C15.5754 8.07357 15.5729 8.33065 15.2951 8.6873C15.1317 8.90068 14.9523 9.10137 14.7586 9.28765C14.2682 9.7513 14.0889 10.3353 14.2098 11.0744C14.2484 11.3473 14.2691 11.6225 14.2717 11.8981V11.9318C14.2811 12.226 14.126 12.4425 13.8472 12.5262C13.5567 12.6183 13.2601 12.6898 12.9595 12.7402C12.2586 12.8442 11.7732 13.186 11.4735 13.7898C11.3459 14.0467 11.1999 14.294 11.0366 14.5299C10.8746 14.7676 10.7121 14.8781 10.4991 14.8781V14.8776ZM13.1007 15.0262C13.0645 15.0168 13.0294 15.0069 12.9932 14.998C12.7569 14.9366 12.6608 14.9915 12.5969 15.2243C12.479 15.6627 12.3621 16.1011 12.2403 16.5593L12.055 17.2528L10.9202 15.2937L10.9623 15.2684C11.2902 15.0748 11.4928 14.7894 11.6959 14.4209C11.7246 14.3684 11.7548 14.3169 11.7851 14.2654C11.8381 14.1747 11.893 14.0811 11.9381 13.986C12.1407 13.556 12.483 13.3123 12.9873 13.2405L13.0214 13.2355C13.1613 13.2191 13.2997 13.1923 13.4355 13.1553C13.6 13.1058 13.6649 13.1905 13.7214 13.29C13.9953 13.7715 14.2771 14.2594 14.5501 14.731C14.6531 14.9103 14.7565 15.0893 14.8601 15.2679C14.8755 15.2957 14.8904 15.3234 14.9097 15.3621C14.9211 15.3838 14.9345 15.4086 14.9508 15.4388L15.0053 15.5404L13.1007 15.0262Z" fill="white" stroke="white" stroke-width="0.3"/>
<path d="M8.50696 3.60449H8.49755C7.28158 3.60672 6.11602 4.09064 5.25606 4.95033C4.3961 5.81001 3.9118 6.9754 3.90918 8.19137C3.90918 10.7142 5.96783 12.7679 8.49507 12.7698H8.49804C9.69679 12.7461 10.8385 12.2535 11.6783 11.3978C12.5181 10.542 12.9891 9.39125 12.9902 8.19227C12.9914 6.99329 12.5227 5.8416 11.6845 4.98422C10.8464 4.12683 9.70566 3.63205 8.50696 3.60598V3.60449ZM11.3973 11.0654C11.0176 11.4481 10.5656 11.7516 10.0677 11.9584C9.56974 12.1651 9.0357 12.2708 8.49656 12.2695C7.41325 12.2691 6.37447 11.8384 5.60874 11.0721C4.84301 10.3058 4.41305 9.26675 4.41344 8.18345C4.41383 7.10014 4.84455 6.06137 5.61084 5.29563C6.37713 4.5299 7.41622 4.09994 8.49953 4.10033H8.50795C9.58898 4.10542 10.6243 4.53724 11.3885 5.30184C12.1527 6.06644 12.584 7.10192 12.5886 8.18295C12.5909 8.71837 12.4868 9.24891 12.2823 9.74373C12.0778 10.2386 11.7769 10.6878 11.3973 11.0654Z" fill="white" stroke="white" stroke-width="0.3"/>
<path d="M11.2461 6.4079C11.2081 6.36423 11.1547 6.33677 11.0971 6.33115C11.0394 6.32553 10.9818 6.34218 10.936 6.37768C10.8983 6.40401 10.8637 6.43459 10.833 6.46883L10.6884 6.61396C9.8628 7.43954 9.0359 8.26643 8.20769 9.09464C8.14181 9.16052 8.08088 9.22987 8.00955 9.30962C7.97488 9.34925 7.93822 9.39036 7.89859 9.43395L7.86342 9.47309L7.82627 9.43544L7.62814 9.23384C7.49737 9.09861 7.37402 8.9713 7.24969 8.84697L7.13378 8.73057C6.79843 8.39373 6.4512 8.04551 6.10594 7.70768C6.05629 7.65386 5.9874 7.62182 5.91425 7.61852C5.88241 7.61925 5.85105 7.62638 5.82203 7.63949C5.79302 7.65259 5.76693 7.6714 5.74533 7.6948C5.64627 7.79387 5.65419 7.93901 5.76168 8.05789C5.781 8.07919 5.80131 8.09851 5.82162 8.11832L5.85183 8.14854L7.58554 9.88224C7.70343 10.0001 7.78367 10.0502 7.855 10.0512C7.92584 10.0512 8.00361 10.0016 8.12001 9.8862C9.13051 8.87471 10.1405 7.86272 11.15 6.85024L11.1748 6.82597C11.2094 6.79446 11.2405 6.75924 11.2674 6.72096C11.3209 6.64071 11.3581 6.52232 11.2461 6.4079Z" fill="white" stroke="white" stroke-width="0.3"/>
</svg>
