<svg width="34" height="31" viewBox="0 0 34 31" fill="none" xmlns="http://www.w3.org/2000/svg">
<path d="M32.9584 23.2319H7.94748L1 30.1794V1H32.9584V23.2319Z" fill="white"/>
<path d="M6.55799 20.4531L1 26.0111V30.1796L7.94748 23.2321H32.9584V20.4531H6.55799Z" fill="#BBD8FF"/>
<path d="M9.33748 10.7266L7.25293 12.8118L9.33723 14.8953L11.4218 12.8101L9.33748 10.7266Z" fill="#BBD8FF"/>
<path d="M17.6753 10.7256L15.5908 12.8109L17.6751 14.8944L19.7596 12.8091L17.6753 10.7256Z" fill="#BBD8FF"/>
<path d="M26.0113 10.7275L23.9277 12.8118L26.012 14.8954L28.0955 12.8111L26.0113 10.7275Z" fill="#BBD8FF"/>
<path d="M9.33748 10.7266L7.25293 12.8118L9.33723 14.8953L11.4218 12.8101L9.33748 10.7266Z" stroke="#2723E1" stroke-width="1.3" stroke-linecap="round" stroke-linejoin="round"/>
<path d="M17.6753 10.7256L15.5908 12.8109L17.6751 14.8944L19.7596 12.8091L17.6753 10.7256Z" stroke="#2723E1" stroke-width="1.3" stroke-linecap="round" stroke-linejoin="round"/>
<path d="M26.0113 10.7275L23.9277 12.8118L26.012 14.8954L28.0955 12.8111L26.0113 10.7275Z" stroke="#2723E1" stroke-width="1.3" stroke-linecap="round" stroke-linejoin="round"/>
<path d="M32.9584 23.2319H7.94748L1 30.1794V1H32.9584V23.2319Z" stroke="#2723E1" stroke-width="1.3" stroke-linecap="round" stroke-linejoin="round"/>
</svg>
