<svg width="30" height="30" viewBox="0 0 30 30" fill="none" xmlns="http://www.w3.org/2000/svg">
<circle cx="15" cy="15" r="14.625" transform="rotate(-90 15 15)" stroke="#2723E1" stroke-width="0.75"/>
<path d="M14.2593 20.4873C14.2593 20.6944 14.4272 20.8623 14.6343 20.8623C14.8414 20.8623 15.0093 20.6944 15.0093 20.4873L14.2593 20.4873ZM14.8994 9.97824C14.753 9.83179 14.5156 9.83179 14.3691 9.97824L11.9826 12.3647C11.8362 12.5112 11.8362 12.7486 11.9826 12.8951C12.1291 13.0415 12.3665 13.0415 12.513 12.8951L14.6343 10.7737L16.7556 12.8951C16.902 13.0415 17.1395 13.0415 17.2859 12.8951C17.4324 12.7486 17.4324 12.5112 17.2859 12.3647L14.8994 9.97824ZM15.0093 20.4873L15.0093 10.2434L14.2593 10.2434L14.2593 20.4873L15.0093 20.4873Z" fill="#2723E1"/>
</svg>
