<svg width="47" height="47" viewBox="0 0 47 47" fill="none" xmlns="http://www.w3.org/2000/svg">
<path fill-rule="evenodd" clip-rule="evenodd" d="M31 17.7778V30.2222C31 30.6937 30.8127 31.1459 30.4793 31.4793C30.1459 31.8127 29.6937 32 29.2222 32H25.8889C25.771 32 25.658 31.9532 25.5746 31.8698C25.4913 31.7865 25.4444 31.6734 25.4444 31.5556V26.2222H27.5244C27.6269 26.2222 27.7262 26.1869 27.8056 26.1221C27.885 26.0573 27.9395 25.9671 27.96 25.8667L28.28 24.2667C28.2865 24.2347 28.2859 24.2018 28.2783 24.1701C28.2707 24.1384 28.2562 24.1088 28.2358 24.0834C28.2154 24.0579 28.1897 24.0373 28.1605 24.0229C28.1313 24.0084 28.0992 24.0006 28.0667 24H25.4444V21.1111C25.4444 21.0522 25.4679 20.9957 25.5095 20.954C25.5512 20.9123 25.6077 20.8889 25.6667 20.8889H27.8889C28.0068 20.8889 28.1198 20.8421 28.2032 20.7587C28.2865 20.6754 28.3333 20.5623 28.3333 20.4444V19.1111C28.3333 18.9932 28.2865 18.8802 28.2032 18.7968C28.1198 18.7135 28.0068 18.6667 27.8889 18.6667H25.6667C24.9594 18.6667 24.2811 18.9476 23.781 19.4477C23.281 19.9478 23 20.6261 23 21.3333V24H21.9067C21.7888 24 21.6757 24.0468 21.5924 24.1302C21.509 24.2135 21.4622 24.3266 21.4622 24.4444V25.7778C21.4622 25.8957 21.509 26.0087 21.5924 26.092C21.6757 26.1754 21.7888 26.2222 21.9067 26.2222H23V31.5556C23 31.6734 22.9532 31.7865 22.8698 31.8698C22.7865 31.9532 22.6734 32 22.5556 32H16.7778C16.3063 32 15.8541 31.8127 15.5207 31.4793C15.1873 31.1459 15 30.6937 15 30.2222V17.7778C15 17.3063 15.1873 16.8541 15.5207 16.5207C15.8541 16.1873 16.3063 16 16.7778 16H29.2222C29.6937 16 30.1459 16.1873 30.4793 16.5207C30.8127 16.8541 31 17.3063 31 17.7778Z" fill="#39228A"/>
<circle cx="23.5" cy="23.5" r="23" stroke="#39228A"/>
</svg>
