<svg width="32" height="31" viewBox="0 0 32 31" fill="none" xmlns="http://www.w3.org/2000/svg">
<path d="M8.62409 17.7312L1 25.0542L8.5 23.7444L10.5455 29.6385L13.2727 20.2827L16 21.7798L18.7273 20.2827L21.4545 29.6385L23.5 23.7444L31 25.0542L23.3759 17.7312L25.5455 16.5406V6.06237L16 0.823242L6.45455 6.06237V16.5406L8.62409 17.7312Z" fill="white"/>
<path d="M10.9477 19.0073L13.2727 20.2831L10.5455 29.6388L8.5 23.7448L10.9477 19.0073Z" fill="#BBD8FF"/>
<path d="M21.0502 19.0073L18.7266 20.2831L21.4538 29.6388L23.4993 23.7448L21.0502 19.0073Z" fill="#BBD8FF"/>
<path d="M18.5544 8.68213L12.1494 14.8342L11.2275 17.1957L16.0003 13.9239L20.773 17.1957L18.7275 11.9527L22.8184 8.68213H18.5544Z" fill="#BBD8FF"/>
<path d="M13.2727 20.2829L10.5455 29.6387L8.5 23.7447L1 25.0544L8.62409 17.7314" stroke="#2723E1" stroke-width="1.25468" stroke-linecap="round" stroke-linejoin="round"/>
<path d="M18.7266 20.2824L21.4538 29.6382L23.4993 23.7442L30.9993 25.054L23.3752 17.731" stroke="#2723E1" stroke-width="1.25468" stroke-linecap="round" stroke-linejoin="round"/>
<path d="M6.45508 6.06237L16.0005 0.823242L25.546 6.06237V16.5406L16.0005 21.7798L6.45508 16.5406V6.06237Z" stroke="#2723E1" stroke-width="1.25468" stroke-linecap="round" stroke-linejoin="round"/>
<path d="M16.0094 4.09766L18.0453 8.6819H22.818L18.7271 11.9524L20.7725 17.1955L15.9998 13.9236L11.2271 17.1955L13.2725 11.9524L9.18164 8.6819H13.9544L16.0094 4.09766Z" stroke="#2723E1" stroke-width="1.25468" stroke-linecap="round" stroke-linejoin="round"/>
</svg>
