<svg width="31" height="30" viewBox="0 0 31 30" fill="none" xmlns="http://www.w3.org/2000/svg">
<path d="M26.5175 10.5638L29.0692 6.10477L18.2243 1.00879L15.0346 5.46778L12.4829 1.00879L1 6.10477L3.55175 10.5638L1 15.0227L3.55175 16.1553V23.9407L15.0346 29.0367L26.5175 23.9407V15.9782L29.7072 14.3858L26.5175 10.5638Z" fill="white"/>
<path d="M18.2239 20.1191L15.0342 15.6602V29.0371L26.517 23.9411V15.9787L18.2239 20.1191Z" fill="#BBD8FF"/>
<path d="M3.55176 10.5642L15.0346 5.46826L26.5175 10.5642L15.0346 15.6602L3.55176 10.5642Z" fill="#BBD8FF"/>
<path d="M26.5175 15.978V23.9405L15.0346 29.0365L3.55176 23.9405V16.1551" stroke="#2723E1" stroke-width="1.25" stroke-linecap="round" stroke-linejoin="round"/>
<path d="M15.0342 15.6602V29.0371" stroke="#2723E1" stroke-width="1.25" stroke-linecap="round" stroke-linejoin="round"/>
<path d="M3.55175 10.5638L1 6.10477L12.4829 1.00879L15.0346 5.46778" stroke="#2723E1" stroke-width="1.25" stroke-linecap="round" stroke-linejoin="round"/>
<path d="M26.517 10.5638L29.0688 6.10477L18.2239 1.00879L15.0342 5.46778" stroke="#2723E1" stroke-width="1.25" stroke-linecap="round" stroke-linejoin="round"/>
<path d="M15.0346 15.66L12.4829 20.1189L1 15.023L3.55175 10.564" stroke="#2723E1" stroke-width="1.25" stroke-linecap="round" stroke-linejoin="round"/>
<path d="M15.0342 15.66L18.2239 20.1189L29.7067 14.386L26.517 10.564" stroke="#2723E1" stroke-width="1.25" stroke-linecap="round" stroke-linejoin="round"/>
<path d="M26.5175 10.564L15.0346 15.66L3.55176 10.564" stroke="#2723E1" stroke-width="1.25" stroke-linecap="round" stroke-linejoin="round"/>
<path d="M26.5175 10.5642L15.0346 5.46826L3.55176 10.5642" stroke="#2723E1" stroke-width="1.25" stroke-linecap="round" stroke-linejoin="round"/>
</svg>
