<svg width="47" height="47" viewBox="0 0 47 47" fill="none" xmlns="http://www.w3.org/2000/svg">
<path d="M28.1446 20.8521C28.6748 20.8521 29.1046 20.4223 29.1046 19.8921C29.1046 19.3619 28.6748 18.9321 28.1446 18.9321C27.6144 18.9321 27.1846 19.3619 27.1846 19.8921C27.1846 20.4223 27.6144 20.8521 28.1446 20.8521Z" fill="#39228A"/>
<path d="M24 28C21.794 28 20 26.206 20 24C20 21.794 21.794 20 24 20C26.206 20 28 21.794 28 24C28 26.206 26.206 28 24 28ZM24 22C22.897 22 22 22.897 22 24C22 25.103 22.897 26 24 26C25.103 26 26 25.103 26 24C26 22.897 25.103 22 24 22Z" fill="#39228A"/>
<path d="M28 32H20C17.944 32 16 30.056 16 28V20C16 17.944 17.944 16 20 16H28C30.056 16 32 17.944 32 20V28C32 30.056 30.056 32 28 32ZM20 18C19.065 18 18 19.065 18 20V28C18 28.953 19.047 30 20 30H28C28.935 30 30 28.935 30 28V20C30 19.065 28.935 18 28 18H20Z" fill="#39228A"/>
<circle cx="23.5" cy="23.5" r="23" stroke="#39228A"/>
</svg>
