<svg width="20" height="20" viewBox="0 0 20 20" fill="none" xmlns="http://www.w3.org/2000/svg">
<path d="M10.5821 1.3566L13.259 6.65995L18.4111 7.17036C18.5338 7.18055 18.6509 7.22568 18.7488 7.30039C18.8466 7.3751 18.9209 7.47628 18.963 7.59193C19.0051 7.70759 19.0131 7.83288 18.9862 7.95298C18.9593 8.07308 18.8986 8.18295 18.8111 8.26959L14.571 12.4721L16.1431 18.1827C16.1752 18.3038 16.1717 18.4316 16.133 18.5508C16.0942 18.67 16.0218 18.7754 15.9245 18.8544C15.8273 18.9334 15.7092 18.9827 15.5846 18.9962C15.4601 19.0097 15.3342 18.987 15.2222 18.9307L9.99891 16.3442L4.78277 18.9275C4.6708 18.9838 4.54496 19.0065 4.42037 18.993C4.29578 18.9795 4.17775 18.9302 4.08048 18.8512C3.9832 18.7722 3.91083 18.6668 3.87206 18.5476C3.83329 18.4284 3.82978 18.3006 3.86194 18.1795L5.43399 12.4689L1.19067 8.26639C1.10326 8.17975 1.0425 8.06988 1.01558 7.94978C0.988673 7.82968 0.996738 7.70439 1.03883 7.58873C1.08091 7.47308 1.15526 7.3719 1.25306 7.29719C1.35087 7.22248 1.46803 7.17735 1.59068 7.16716L6.74282 6.65675L9.41569 1.3566C9.47066 1.24924 9.5542 1.15914 9.65711 1.09622C9.76001 1.03329 9.87829 1 9.99891 1C10.1195 1 10.2378 1.03329 10.3407 1.09622C10.4436 1.15914 10.5272 1.24924 10.5821 1.3566Z" stroke="#2723E1" stroke-linecap="round" stroke-linejoin="round"/>
</svg>
