<svg width="92" height="123" viewBox="0 0 92 123" fill="none" xmlns="http://www.w3.org/2000/svg">
<path d="M80.8261 49.6953H10.7826C6.48439 49.6953 3 53.1797 3 57.4779V111.956C3 116.254 6.48439 119.739 10.7826 119.739H80.8261C85.1243 119.739 88.6087 116.254 88.6087 111.956V57.4779C88.6087 53.1797 85.1243 49.6953 80.8261 49.6953Z" fill="#DCDCFA" fill-opacity="0.5" stroke="#2723E1" stroke-width="5" stroke-linecap="round" stroke-linejoin="round"/>
<path d="M45.8047 96.3911V76.9346" stroke="#2723E1" stroke-width="5" stroke-linecap="round" stroke-linejoin="round"/>
<path d="M45.8041 74.9893C46.1889 74.9893 46.565 75.1034 46.885 75.3172C47.205 75.5309 47.4543 75.8348 47.6016 76.1903C47.7489 76.5459 47.7874 76.9371 47.7123 77.3145C47.6372 77.6919 47.4519 78.0386 47.1798 78.3107C46.9077 78.5828 46.561 78.7681 46.1836 78.8432C45.8062 78.9183 45.415 78.8797 45.0595 78.7325C44.704 78.5852 44.4001 78.3358 44.1863 78.0159C43.9725 77.6959 43.8584 77.3197 43.8584 76.9349C43.8584 76.4189 44.0634 75.924 44.4283 75.5591C44.7931 75.1942 45.288 74.9893 45.8041 74.9893Z" fill="#DCDCFA" fill-opacity="0.5" stroke="#2723E1" stroke-width="5" stroke-linecap="round" stroke-linejoin="round"/>
<path d="M73.0437 30.2391C73.0437 23.0149 70.1739 16.0865 65.0655 10.9782C59.9572 5.86983 53.0288 3 45.8046 3C38.5803 3 31.6519 5.86983 26.5436 10.9782C21.4353 16.0865 18.5654 23.0149 18.5654 30.2391V49.6957H73.0437V30.2391Z" fill="#DCDCFA" fill-opacity="0.5" stroke="#2723E1" stroke-width="5" stroke-linecap="round" stroke-linejoin="round"/>
</svg>
