<svg width="28" height="28" viewBox="0 0 28 28" fill="none" xmlns="http://www.w3.org/2000/svg">
<path d="M16.8261 1H5.52174C4.3225 1 3.17238 1.4764 2.32439 2.32439C1.4764 3.17238 1 4.3225 1 5.52174V11.1739C1 12.3732 1.4764 13.5233 2.32439 14.3713C3.17238 15.2193 4.3225 15.6957 5.52174 15.6957H6.65217V20.2174L11.7391 15.6957H16.8261C18.0253 15.6957 19.1754 15.2193 20.0234 14.3713C20.8714 13.5233 21.3478 12.3732 21.3478 11.1739V5.52174C21.3478 4.3225 20.8714 3.17238 20.0234 2.32439C19.1754 1.4764 18.0253 1 16.8261 1V1Z" stroke="#2723E1" stroke-linecap="round" stroke-linejoin="round"/>
<path d="M13.4346 19.0872V20.7828C13.4346 21.1539 13.5077 21.5214 13.6497 21.8643C13.7917 22.2072 13.9999 22.5187 14.2623 22.7812C14.5247 23.0436 14.8363 23.2518 15.1792 23.3938C15.522 23.5358 15.8895 23.6089 16.2607 23.6089H19.0867L22.478 27.0002V23.6089H24.1737C24.5448 23.6089 24.9123 23.5358 25.2552 23.3938C25.5981 23.2518 25.9096 23.0436 26.172 22.7812C26.4345 22.5187 26.6426 22.2072 26.7847 21.8643C26.9267 21.5214 26.9998 21.1539 26.9998 20.7828V17.3915C26.9998 16.642 26.702 15.9232 26.172 15.3932C25.6421 14.8632 24.9232 14.5654 24.1737 14.5654H23.6085" stroke="#2723E1" stroke-linecap="round" stroke-linejoin="round"/>
</svg>
