<svg width="25" height="25" viewBox="0 0 25 25" fill="none" xmlns="http://www.w3.org/2000/svg">
<circle cx="12.5" cy="12.5" r="12.2222" stroke="#2723E1" stroke-width="0.555556"/>
<path d="M7.92676 11.9175C7.77335 11.9175 7.64898 12.0419 7.64898 12.1953C7.64898 12.3487 7.77335 12.4731 7.92676 12.4731V11.9175ZM16.6598 12.3917C16.7682 12.2833 16.7682 12.1074 16.6598 11.9989L14.892 10.2311C14.7835 10.1226 14.6076 10.1226 14.4992 10.2311C14.3907 10.3396 14.3907 10.5155 14.4992 10.624L16.0705 12.1953L14.4992 13.7667C14.3907 13.8751 14.3907 14.051 14.4992 14.1595C14.6076 14.268 14.7835 14.268 14.892 14.1595L16.6598 12.3917ZM7.92676 12.4731H16.4633V11.9175H7.92676V12.4731Z" fill="#2723E1"/>
</svg>
