<svg width="186" height="166" viewBox="0 0 186 166" fill="none" xmlns="http://www.w3.org/2000/svg">
<path d="M135.743 123L147.455 163L120.126 144.818L92.7969 163L104.509 123" fill="white"/>
<path d="M81.0839 104.819H18.6172V17.5459H166.976V104.702L81.0839 104.819Z" fill="white"/>
<path d="M120.126 123H135.743L147.455 163L120.126 144.818V123Z" fill="#BBD8FF"/>
<path d="M3 3V119.364H182.592V3H3ZM166.975 104.702L81.0834 104.818H18.6167V17.5455H166.975V104.702Z" fill="#BBD8FF"/>
<path d="M120.124 79.3643L96.6992 92.0915V117.546L120.124 130.273L143.549 117.546V92.0915L120.124 79.3643ZM120.124 115.728L108.412 104.819L120.124 93.9097L131.837 104.819L120.124 115.728Z" fill="#BBD8FF"/>
<path d="M135.743 123L147.455 163L120.126 144.818L92.7969 163L104.509 123" stroke="#2723E1" stroke-width="5" stroke-linecap="round" stroke-linejoin="round"/>
<path d="M143.549 117.546L120.124 130.273L96.6992 117.546V92.0915L120.124 79.3643L143.549 92.0915V117.546Z" stroke="#2723E1" stroke-width="5" stroke-linecap="round" stroke-linejoin="round"/>
<path d="M81.0834 119.364H3V3H182.592V119.364H159.167" stroke="#2723E1" stroke-width="5" stroke-linecap="round" stroke-linejoin="round"/>
<path d="M81.0839 104.819H18.6172V17.5459H166.976V101.182L159.292 101.299" stroke="#2723E1" stroke-width="5" stroke-linecap="round" stroke-linejoin="round"/>
<path d="M120.122 93.9111L108.411 104.819L120.122 115.726L131.833 104.819L120.122 93.9111Z" stroke="#2723E1" stroke-width="5" stroke-linecap="round" stroke-linejoin="round"/>
<path d="M42.042 50.2727L53.7545 43L65.467 50.2727L77.1795 43L88.892 50.2727L100.605 43L112.317 50.2727L124.03 43" stroke="#2723E1" stroke-width="5" stroke-linecap="round" stroke-linejoin="round"/>
<path d="M42.042 72.0911L53.7545 64.8184L65.467 72.0911L77.1795 64.8184L88.892 72.0911L100.605 64.8184" stroke="#2723E1" stroke-width="5" stroke-linecap="round" stroke-linejoin="round"/>
</svg>
