<svg width="45" height="45" viewBox="0 0 45 45" fill="none" xmlns="http://www.w3.org/2000/svg">
<circle cx="22.5" cy="22.5" r="22" stroke="#2723E1"/>
<path d="M14.2686 21.4512C13.9924 21.4512 13.7686 21.675 13.7686 21.9512C13.7686 22.2273 13.9924 22.4512 14.2686 22.4512L14.2686 21.4512ZM29.988 22.3047C30.1832 22.1095 30.1832 21.7929 29.988 21.5976L26.806 18.4156C26.6107 18.2204 26.2941 18.2204 26.0989 18.4156C25.9036 18.6109 25.9036 18.9275 26.0989 19.1227L28.9273 21.9512L26.0989 24.7796C25.9036 24.9749 25.9036 25.2914 26.0989 25.4867C26.2941 25.682 26.6107 25.682 26.806 25.4867L29.988 22.3047ZM14.2686 22.4512L29.6344 22.4512L29.6344 21.4512L14.2686 21.4512L14.2686 22.4512Z" fill="#2723E1"/>
</svg>
