<svg width="45" height="45" viewBox="0 0 45 45" fill="none" xmlns="http://www.w3.org/2000/svg">
<circle cx="22.5" cy="22.5" r="22" transform="rotate(-180 22.5 22.5)" stroke="#2723E1"/>
<path d="M30.7319 23.5488C31.0081 23.5488 31.2319 23.325 31.2319 23.0488C31.2319 22.7727 31.0081 22.5488 30.7319 22.5488L30.7319 23.5488ZM15.0125 22.6953C14.8173 22.8905 14.8173 23.2071 15.0125 23.4024L18.1945 26.5844C18.3898 26.7796 18.7064 26.7796 18.9016 26.5844C19.0969 26.3891 19.0969 26.0725 18.9016 25.8773L16.0732 23.0488L18.9016 20.2204C19.0969 20.0251 19.0969 19.7086 18.9016 19.5133C18.7064 19.318 18.3898 19.318 18.1945 19.5133L15.0125 22.6953ZM30.7319 22.5488L15.3661 22.5488L15.3661 23.5488L30.7319 23.5488L30.7319 22.5488Z" fill="#2723E1"/>
</svg>
