<svg width="25" height="22" viewBox="0 0 25 22" fill="none" xmlns="http://www.w3.org/2000/svg">
<path d="M6.23174 0L8.76792 1.73975C8.28483 2.38926 7.70514 3.31712 7.02882 4.52334C6.40082 5.72957 5.86943 7.07498 5.43466 8.55956C4.99989 9.99776 4.83081 11.4128 4.92742 12.8046C5.26558 12.6654 5.55543 12.5958 5.79697 12.5958C6.03851 12.5494 6.28005 12.5262 6.52159 12.5262C7.72929 12.5262 8.76792 12.8741 9.63746 13.57C10.5553 14.2659 11.0142 15.3098 11.0142 16.7016C11.0142 18.047 10.5553 19.1836 9.63746 20.1115C8.76792 21.0394 7.60852 21.5033 6.15928 21.5033C4.13034 21.5497 2.58448 20.9002 1.5217 19.5548C0.507235 18.2094 0 16.5392 0 14.5443C0 13.1525 0.24154 11.6215 0.724621 9.95136C1.2077 8.2812 1.90817 6.58785 2.82602 4.8713C3.74388 3.15474 4.87912 1.53098 6.23174 0ZM20.1445 0L22.6806 1.73975C22.1976 2.38926 21.6179 3.31712 20.9415 4.52334C20.3135 5.72957 19.7822 7.07498 19.3474 8.55956C18.9126 9.99776 18.7435 11.4128 18.8402 12.8046C19.1783 12.6654 19.4682 12.5958 19.7097 12.5958C19.9512 12.5494 20.1928 12.5262 20.4343 12.5262C21.642 12.5262 22.6806 12.8741 23.5502 13.57C24.468 14.2659 24.927 15.3098 24.927 16.7016C24.927 18.047 24.468 19.1836 23.5502 20.1115C22.6806 21.0394 21.5212 21.5033 20.072 21.5033C18.0431 21.5497 16.4972 20.9002 15.4344 19.5548C14.42 18.2094 13.9127 16.5392 13.9127 14.5443C13.9127 13.1525 14.1543 11.6215 14.6373 9.95136C15.1204 8.2812 15.8209 6.58785 16.7387 4.8713C17.6566 3.15474 18.7918 1.53098 20.1445 0Z" fill="#39228A"/>
</svg>
