<svg width="210" height="166" viewBox="0 0 210 166" fill="none" xmlns="http://www.w3.org/2000/svg">
<path d="M198.332 3H11.6653C6.75606 3 2.77637 6.97969 2.77637 11.8889V154.111C2.77637 159.02 6.75606 163 11.6653 163H198.332C203.241 163 207.221 159.02 207.221 154.111V11.8889C207.221 6.97969 203.241 3 198.332 3Z" stroke="#2723E1" stroke-width="5" stroke-linecap="round" stroke-linejoin="round"/>
<path d="M71.665 49.0713V67.4446" stroke="#2723E1" stroke-width="5" stroke-linecap="round" stroke-linejoin="round"/>
<path d="M138.332 49.0713V67.4446" stroke="#2723E1" stroke-width="5" stroke-linecap="round" stroke-linejoin="round"/>
<path d="M51.665 120.181C57.0472 111.517 64.6787 104.476 73.7467 99.8062C82.8147 95.1368 92.9796 93.0146 103.158 93.6658C113.785 93.4791 124.309 95.7795 133.888 100.383C143.468 104.987 151.838 111.767 158.332 120.181" stroke="#2723E1" stroke-width="5" stroke-linecap="round" stroke-linejoin="round"/>
</svg>
