<svg width="30" height="30" viewBox="0 0 30 30" fill="none" xmlns="http://www.w3.org/2000/svg">
<circle cx="15" cy="15" r="14.625" transform="rotate(90 15 15)" stroke="#2723E1" stroke-width="0.75"/>
<path d="M15.7407 9.5127C15.7407 9.30559 15.5728 9.1377 15.3657 9.1377C15.1586 9.1377 14.9907 9.30559 14.9907 9.5127L15.7407 9.5127ZM15.1006 20.0218C15.247 20.1682 15.4844 20.1682 15.6309 20.0218L18.0174 17.6353C18.1638 17.4888 18.1638 17.2514 18.0174 17.1049C17.8709 16.9585 17.6335 16.9585 17.487 17.1049L15.3657 19.2263L13.2444 17.1049C13.098 16.9585 12.8605 16.9585 12.7141 17.1049C12.5676 17.2514 12.5676 17.4888 12.7141 17.6353L15.1006 20.0218ZM14.9907 9.5127L14.9907 19.7566L15.7407 19.7566L15.7407 9.5127L14.9907 9.5127Z" fill="#2723E1"/>
</svg>
